<svg width="46" height="46" viewBox="0 0 46 46" fill="none" xmlns="http://www.w3.org/2000/svg">
<path d="M9.02037 6.36096L13.836 6.3969C12.0751 8.15784 11.0329 10.4219 10.6735 12.9735L8.84068 12.9375C6.86412 12.8656 5.3188 11.3922 5.35474 9.59534C5.35474 7.76252 6.97193 6.36096 9.02037 6.36096ZM23.4672 34.1047C23.7907 34.8953 25.9469 39.2797 25.9469 39.2797H19.8016C19.8016 39.2797 21.7782 35.1469 22.2094 34.1047C22.5688 33.3141 23.1079 33.2781 23.4672 34.1047Z" fill="#FFFFFF"/>
<path d="M41.2922 17.2141C40.8969 18.7594 39.3157 19.9094 37.375 19.9094H35.5782C35.4704 19.9453 35.3985 20.0172 35.4344 20.125V39.2797H32.1641L25.875 26.2703C26.5219 25.5516 26.9172 24.5813 26.9172 23.5391C26.9172 21.8141 25.911 20.2688 24.4016 19.6578V17.8969C24.4016 17.1422 23.7547 16.6032 23 16.6032H22.9282C22.1735 16.6032 21.5266 17.25 21.5266 18.0047V19.6578C19.8735 20.1969 18.6516 21.7422 18.6516 23.611C18.6516 24.6891 19.0829 25.6953 19.7657 26.4141L13.6563 39.3157H8.30161C6.25317 39.3157 4.63599 37.6625 4.63599 35.6141V10.6735C4.63599 10.6735 4.63599 10.4578 4.67192 10.6735C4.95942 12.3985 6.4688 13.7282 8.30161 13.7641H35.9375C35.9016 13.7641 41.1844 13.2969 41.2922 17.2141Z" fill="#FFFFFF"/>
<path d="M22.7484 21.4906C23.8625 21.4906 24.7968 22.425 24.7609 23.575C24.7609 24.6891 23.8265 25.6234 22.6765 25.5875C21.5625 25.5875 20.664 24.6531 20.664 23.5391C20.664 23 20.8796 22.4969 21.275 22.1016C21.7062 21.7062 22.2093 21.4906 22.7484 21.4906ZM23.575 20.3047V18.1484C23.575 17.8969 23.4671 17.6813 23.2515 17.5734C22.9281 17.3938 22.5328 17.5016 22.3531 17.825C22.2812 17.9328 22.2453 18.0406 22.2812 18.1844V20.2688C20.4843 20.5563 19.2265 22.2453 19.514 24.0781V24.1141C19.6578 24.9766 20.125 25.7672 20.8437 26.2703L13.189 42.6938C12.9015 43.2688 12.9375 43.9875 13.3328 44.5266C13.9078 45.3531 15.0218 45.5687 15.8484 44.9937C16.1359 44.8141 16.3515 44.5266 16.4953 44.2391L21.5625 33.2422C21.8859 32.5234 22.7484 32.2 23.5031 32.5594C23.7906 32.7031 24.0421 32.9547 24.1859 33.2422L29.3968 44.1313C29.8281 45.0297 30.9062 45.3891 31.8046 44.9578C32.7031 44.5266 33.0625 43.4484 32.6312 42.55L24.7968 26.1984C26.2343 25.0484 26.4859 22.9281 25.3359 21.4906C24.9046 20.9156 24.2937 20.5203 23.575 20.3047ZM28.6062 4.63594H28.5703L30.475 1.32969C30.5828 1.15 30.5109 0.934375 30.3671 0.790625C30.1875 0.71875 30.0078 0.754687 29.9 0.898438L27.8875 4.3125C24.7609 2.91094 21.1671 2.91094 18.0046 4.3125L16.064 0.934375C15.9921 0.826562 15.8484 0.71875 15.7046 0.71875C15.5609 0.71875 15.4171 0.790625 15.3453 0.934375C15.2734 1.07812 15.2734 1.22188 15.3453 1.32969L17.2859 4.63594C14.1234 6.39687 12.039 9.41562 11.5359 12.9375H34.464C33.925 9.41562 31.7687 6.39687 28.6062 4.63594ZM18.4 10.0625L18.2562 10.2062C18.0765 10.3859 17.825 10.4938 17.5734 10.4938H17.6093C17.0703 10.4938 16.639 10.0625 16.639 9.55938V9.52344C16.639 9.27188 16.7468 9.02031 16.9265 8.84063C17.25 8.44531 17.8609 8.37344 18.2562 8.69688C18.7234 9.02031 18.7593 9.63125 18.4 10.0625ZM28.2468 10.4219C27.7078 10.4578 27.2765 10.0266 27.2765 9.4875V9.45156C27.2765 9.2 27.3843 8.94844 27.564 8.76875C27.9234 8.40937 28.5343 8.40937 28.9296 8.76875C29.1093 8.94844 29.2171 9.2 29.2171 9.45156C29.2171 10.0266 28.7859 10.4219 28.2468 10.4219ZM37.9859 20.8438H36.4765C36.4046 20.8797 36.3328 20.9516 36.3328 21.0594V44.9578C36.3328 45.0656 36.4046 45.1375 36.5125 45.1375H38.0937C39.9265 45.1375 41.4 43.6281 41.4 41.8313C41.4 41.8313 41.364 19.8734 41.4 19.0469C41.4359 18.1844 41.2203 18.7953 41.1484 18.975C40.6093 20.125 39.4234 20.8797 38.0578 20.8797H37.9859V20.8438Z" fill="#FFFFFF"/>
<path d="M22.7484 24.689C23.3835 24.689 23.8984 24.1742 23.8984 23.539C23.8984 22.9039 23.3835 22.389 22.7484 22.389C22.1133 22.389 21.5984 22.9039 21.5984 23.539C21.5984 24.1742 22.1133 24.689 22.7484 24.689Z" fill="#FFFFFF"/>
</svg>
