<svg width="52" height="54" viewBox="0 0 52 54" fill="none" xmlns="http://www.w3.org/2000/svg">
<g clip-path="url(#clip0_164_17)">
<path d="M26.9474 29.5447C27.0449 27.7551 27.8927 26.1752 29.1757 25.0585C30.4326 23.9608 32.1202 23.2896 33.9731 23.2896C35.8162 23.2896 37.5034 23.9603 38.7587 25.0585C40.0437 26.1752 40.8862 27.7551 40.987 29.5447C41.0845 31.3798 40.3683 33.0927 39.1162 34.3612C37.8333 35.648 36.0177 36.4609 33.9731 36.4609C31.9268 36.4609 30.1031 35.653 28.8283 34.3612C27.5714 33.0931 26.8568 31.3896 26.9571 29.5531L26.9474 29.5447Z" fill="#FFFFFF"/>
<path d="M15.9433 33.3289C15.9546 34.0292 16.1724 35.3919 16.4958 36.4525C17.1791 38.7036 18.3389 40.7864 19.9448 42.6114C21.595 44.4951 23.6311 46.0096 25.9776 47.0875C28.4448 48.2139 31.1228 48.7906 33.9016 48.7906C36.6803 48.7868 39.3583 48.2 41.8251 47.0601C44.1716 45.9708 46.2085 44.458 47.8579 42.5642C49.4723 40.7189 50.6285 38.6378 51.3073 36.385C51.6473 35.266 51.8646 34.1108 51.9553 32.9412C52.0398 31.8064 52.0041 30.661 51.8485 29.5156C51.5443 27.3085 50.7944 25.1931 49.6478 23.3081C48.6021 21.5573 47.2444 20.0344 45.63 18.7464L45.6349 18.7447L29.4031 5.87498C29.3885 5.86317 29.3755 5.85136 29.3609 5.84123C28.2969 4.99664 26.4993 5.00001 25.335 5.84461C24.1511 6.70144 24.0146 8.11641 25.0685 9.00698L25.0636 9.01036L31.8406 14.6989L11.2076 14.7204H11.18C9.47496 14.7221 7.8329 15.876 7.51156 17.3415C7.17843 18.827 8.33827 20.0669 10.1164 20.0669L10.1132 20.0736L20.5684 20.0534L1.86062 34.8148C1.83787 34.8333 1.81187 34.8519 1.78912 34.8705C0.028024 36.2601 -0.54032 38.5787 0.568743 40.0359C1.69731 41.5217 4.08931 41.5319 5.86909 40.0443L16.0489 31.4339C16.0489 31.4339 15.8994 32.5974 15.9124 33.2888L15.9433 33.3289ZM42.1708 37.2182C40.0713 39.4237 37.1268 40.6818 33.9536 40.6818C30.7722 40.6868 27.8277 39.4507 25.7278 37.2469C24.7016 36.1673 23.9496 34.938 23.4821 33.6225C23.0249 32.3282 22.8486 30.945 22.9657 29.5717C23.0769 28.2318 23.4616 26.9319 24.0943 25.7584C24.7065 24.6134 25.5527 23.5731 26.5886 22.6926C28.6333 20.9806 31.228 20.0432 33.9418 20.0432C36.6673 20.0399 39.2624 20.9604 41.3071 22.674C42.343 23.5494 43.186 24.5847 43.8015 25.7297C44.4355 26.903 44.8198 28.204 44.9284 29.5447C45.0439 30.9174 44.8676 32.2997 44.4121 33.5939C43.9461 34.9194 43.1925 36.1487 42.1643 37.2283L42.1708 37.2182Z" fill="#FFFFFF"/>
</g>
<defs>
<clipPath id="clip0_164_17">
<rect width="52" height="54" fill="white"/>
</clipPath>
</defs>
</svg>
