<svg width="43" height="43" viewBox="0 0 43 43" fill="none" xmlns="http://www.w3.org/2000/svg">
<path d="M21.5 15.5284H15.5284M21.5 15.5284V3.58337H15.5284C13.9444 3.58337 12.4252 4.21262 11.3052 5.33268C10.1851 6.45275 9.55585 7.97188 9.55585 9.55589C9.55585 11.1399 10.1851 12.659 11.3052 13.7791C12.4252 14.8992 13.9444 15.5284 15.5284 15.5284M21.5 15.5284V27.4717H15.5284M21.5 15.5284H27.4716M15.5284 15.5284C13.9446 15.5284 12.4257 16.1576 11.3058 17.2775C10.1859 18.3974 9.55674 19.9163 9.55674 21.5C9.55674 23.0838 10.1859 24.6027 11.3058 25.7226C12.4257 26.8425 13.9446 27.4717 15.5284 27.4717M15.5284 27.4717C14.3474 27.4717 13.1929 27.8219 12.2109 28.4779C11.2289 29.134 10.4635 30.0666 10.0115 31.1576C9.55945 32.2487 9.44108 33.4493 9.67136 34.6076C9.90163 35.766 10.4702 36.83 11.3052 37.6652C12.1401 38.5005 13.204 39.0693 14.3623 39.3C15.5205 39.5306 16.7212 39.4126 17.8124 38.9609C18.9036 38.5092 19.8363 37.744 20.4927 36.7622C21.1491 35.7805 21.4996 34.6261 21.5 33.4451M27.4716 15.5284C25.8878 15.5284 24.3689 16.1576 23.249 17.2775C22.1291 18.3974 21.5 19.9163 21.5 21.5C21.5 23.0838 22.1291 24.6027 23.249 25.7226C24.3689 26.8425 25.8878 27.4717 27.4716 27.4717C29.0554 27.4717 30.5743 26.8425 31.6942 25.7226C32.8141 24.6027 33.4432 23.0838 33.4432 21.5C33.4432 19.9163 32.8141 18.3974 31.6942 17.2775C30.5743 16.1576 29.0554 15.5284 27.4716 15.5284ZM27.4716 15.5284C29.0556 15.5284 30.5748 14.8992 31.6948 13.7791C32.8149 12.659 33.4441 11.1399 33.4441 9.55589C33.4441 7.97188 32.8149 6.45275 31.6948 5.33268C30.5748 4.21262 29.0556 3.58337 27.4716 3.58337" stroke="#FFFFFF" stroke-width="1.5" stroke-linecap="round" stroke-linejoin="round"/>
</svg>
