<svg width="47" height="47" viewBox="0 0 47 47" fill="none" xmlns="http://www.w3.org/2000/svg">
<g clip-path="url(#clip0_164_14)">
<path d="M0 0H47V47H0V0Z" fill="#FFFFFF"/>
<path d="M12.358 39.2766L15.9546 37.0999C16.6486 38.3301 17.2798 39.3711 18.7939 39.3711C20.2452 39.3711 21.1604 38.8034 21.1604 36.5952V21.5776H25.5771V36.6576C25.5771 41.2322 22.8956 43.3145 18.9832 43.3145C15.4499 43.3145 13.399 41.4846 12.3578 39.2762M27.9762 38.8033L31.5724 36.7211C32.5192 38.2672 33.7496 39.4029 35.9263 39.4029C37.7566 39.4029 38.9235 38.4878 38.9235 37.2258C38.9235 35.7115 37.7246 35.1751 35.7055 34.292L34.6015 33.8183C31.4149 32.4621 29.3012 30.7584 29.3012 27.1618C29.3012 23.849 31.825 21.325 35.7688 21.325C38.5767 21.325 40.5959 22.3031 42.047 24.8586L38.6079 27.0672C37.8506 25.7106 37.0306 25.1744 35.7686 25.1744C34.475 25.1744 33.6547 25.9947 33.6547 27.0672C33.6547 28.3922 34.475 28.9289 36.3679 29.7491L37.472 30.2223C41.2265 31.8315 43.3402 33.4719 43.3402 37.1629C43.3402 41.1384 40.2169 43.3151 36.0209 43.3151C31.9196 43.3151 29.2694 41.3591 27.976 38.8034" fill="black"/>
</g>
<defs>
<clipPath id="clip0_164_14">
<rect width="47" height="47" fill="white"/>
</clipPath>
</defs>
</svg>
