<svg width="46" height="52" viewBox="0 0 46 52" fill="none" xmlns="http://www.w3.org/2000/svg">
<g clip-path="url(#clip0_164_20)">
<path d="M23 51.9037C22.2857 51.9037 21.6191 51.713 21.0001 51.3792L14.6666 47.6122C13.7143 47.0877 14.1905 46.897 14.4762 46.8016C15.7618 46.3725 15.9999 46.2771 17.3332 45.514C17.4762 45.4186 17.6667 45.4663 17.8094 45.5617L22.6667 48.4705C22.8571 48.5658 23.0952 48.5658 23.2381 48.4705L42.2382 37.4556C42.4287 37.3603 42.5239 37.1695 42.5239 36.9311V14.9488C42.5239 14.7104 42.4287 14.5197 42.2382 14.4243L23.2381 3.45698C23.0476 3.36162 22.8095 3.36162 22.6667 3.45698L3.66652 14.4245C3.47605 14.5198 3.38082 14.7583 3.38082 14.949V36.9311C3.38082 37.1219 3.47605 37.3603 3.66652 37.4556L8.85716 40.4596C11.6667 41.89 13.4284 40.2212 13.4284 38.5523V16.8561C13.4284 16.57 13.6667 16.2839 14 16.2839H16.4286C16.7144 16.2839 17.0001 16.5223 17.0001 16.8561V38.5521C17.0001 42.3192 14.9523 44.5125 11.3809 44.5125C10.2857 44.5125 9.42856 44.5125 7.00009 43.3205L1.99992 40.4596C0.761875 39.7442 0 38.4091 0 36.9786V14.9967C0 13.5662 0.761875 12.2311 1.99992 11.5157L21.0001 0.500902C22.1905 -0.166642 23.8095 -0.166642 24.9999 0.500902L44.0001 11.5157C45.2381 12.2309 46 13.566 46 14.9967V36.9788C46 38.4093 45.2381 39.7443 44.0001 40.4596L24.9999 51.4748C24.3809 51.7608 23.6666 51.9039 23 51.9039M28.8571 36.7881C20.5237 36.7881 18.8095 32.9736 18.8095 29.731C18.8095 29.4449 19.0476 29.1588 19.3809 29.1588H21.857C22.1427 29.1588 22.381 29.3496 22.381 29.6357C22.7619 32.1628 23.8571 33.4027 28.9047 33.4027C32.9047 33.4027 34.6191 32.4967 34.6191 30.3511C34.6191 29.1112 34.143 28.2052 27.9048 27.5852C22.7143 27.0607 19.4761 25.9163 19.4761 21.768C19.4761 17.9054 22.7141 15.6167 28.1428 15.6167C34.238 15.6167 37.2381 17.7147 37.619 22.2923C37.619 22.4354 37.5714 22.5785 37.4762 22.7215C37.3809 22.8168 37.2381 22.9122 37.0952 22.9122H34.6191C34.3809 22.9122 34.143 22.7215 34.0952 22.483C33.5238 19.8606 32.0476 19.0023 28.1428 19.0023C23.7621 19.0023 23.2381 20.5281 23.2381 21.6725C23.2381 23.0554 23.8571 23.4844 29.7618 24.2473C35.6191 25.0102 38.3809 26.107 38.3809 30.2078C38.3333 34.404 34.9048 36.7881 28.8571 36.7881Z" fill="#FFFFFF"/>
</g>
<defs>
<clipPath id="clip0_164_20">
<rect width="46" height="52" fill="white"/>
</clipPath>
</defs>
</svg>
