<svg width="50" height="50" viewBox="0 0 50 50" fill="none" xmlns="http://www.w3.org/2000/svg">
<g clip-path="url(#clip0_164_51)">
<path fill-rule="evenodd" clip-rule="evenodd" d="M50 50H0V0H50V50ZM39.6885 21.1928V17.3148C39.0498 17.0305 35.3925 15.9843 32.5031 17.0868C28.341 18.6749 28.4905 23.4591 30.0699 25.3367C32.1163 27.7695 37.2068 28.6766 36.3738 31.0645C35.9425 32.301 33.9287 32.5162 32.1533 32.1011C30.5 31.7146 29.0625 30.7353 29.0625 30.7353V34.8412C29.0625 34.8412 30.4834 35.6334 32.2273 35.8219C34.463 36.0634 37.2653 35.6073 38.6692 34.3595C41.1683 32.1381 41.552 27.2172 36.8162 24.9321C32.8753 23.0308 32.9401 22.4881 32.9678 21.5128C33.0049 20.2065 35.7475 19.4024 39.6885 21.1928ZM18.4365 10.3101C21.7155 10.4241 26.5344 11.9354 26.5344 18.3794C26.5344 24.8234 20.6385 26.938 15.2587 26.4772V35.6016H11.251V10.3955C11.251 10.3955 15.1574 10.196 18.4365 10.3101ZM19.4771 22.4854C21.2053 21.8548 22.3285 20.4992 22.3285 18.3936C22.3285 16.161 21.1854 14.6492 19.4372 14.2222C17.544 13.7596 15.2586 14.0322 15.2586 14.0322V22.8256C15.2586 22.8256 18.4222 22.8703 19.4771 22.4854Z" fill="#E49245"/>
</g>
<defs>
<clipPath id="clip0_164_51">
<rect width="50" height="50" fill="white"/>
</clipPath>
</defs>
</svg>
