<svg width="55" height="55" viewBox="0 0 55 55" fill="none" xmlns="http://www.w3.org/2000/svg">
<path d="M40.3085 39.5794C40.6458 36.7722 40.5449 36.3602 42.6357 36.8152L43.1664 36.8616C44.7743 36.9347 46.8776 36.6029 48.1134 36.0289C50.7736 34.7944 52.3505 32.734 49.7281 33.275C43.7452 34.5095 43.334 32.4835 43.334 32.4835C49.6517 23.1099 52.2925 11.2106 50.0126 8.2977C43.795 0.353212 33.0326 4.10997 32.8526 4.20708L32.795 4.21782C31.6129 3.97247 30.2899 3.82595 28.8036 3.80188C26.0962 3.7572 24.0418 4.51173 22.4834 5.69337C22.4834 5.69337 3.28364 -2.21675 4.17696 15.6411C4.36688 19.4399 9.62196 44.3863 15.8902 36.8513C18.1813 34.0961 20.3951 31.7664 20.3951 31.7664C21.4942 32.4964 22.8108 32.8694 24.1909 32.7353L24.2979 32.6442C24.2644 32.9863 24.279 33.321 24.3405 33.7172C22.7261 35.5214 23.2005 35.8381 19.9723 36.5024C16.7058 37.1753 18.6248 38.3737 19.8773 38.6869C21.3963 39.0668 24.9098 39.6047 27.2843 36.2815L27.1897 36.6605C27.8231 37.1675 27.7806 40.303 27.8699 42.5429C27.9597 44.7833 28.1097 46.8738 28.5665 48.1065C29.0232 49.3393 29.562 52.5134 33.8048 51.6042C37.3506 50.8462 40.0615 49.7527 40.3085 39.5794Z" fill="black"/>
<path d="M32.4233 53.8209C30.5469 53.8209 29.3248 53.0952 28.5828 52.3944C27.4626 51.3373 27.0183 49.9757 26.7527 49.1623L26.638 48.8228C26.1035 47.3799 25.9221 45.3024 25.8147 42.6271C25.7984 42.2254 25.7872 41.8116 25.7748 41.3729C25.7657 41.0519 25.7546 40.6493 25.7382 40.2282C25.0622 40.5505 24.3446 40.7773 23.6061 40.902C22.2831 41.128 20.8608 41.0549 19.378 40.6841C18.3317 40.4224 17.2446 39.8802 16.625 39.0427C14.819 40.6244 13.0964 40.41 12.158 40.0967C10.5024 39.5446 9.02081 37.993 7.62819 35.3543C6.63604 33.4744 5.67655 31.0252 4.77593 28.0741C3.20757 22.935 2.21112 17.5222 2.12261 15.745C1.84417 10.1827 3.34163 6.20468 6.57245 3.92261C11.669 0.322691 19.3909 2.43976 22.2062 3.40097C24.0977 2.26101 26.323 1.70629 28.8376 1.74625C30.1881 1.76816 31.4741 1.88675 32.6687 2.09988C33.9148 1.708 36.376 1.14554 39.1935 1.18078C44.3845 1.24265 48.6861 3.26562 51.6325 7.03097C53.7354 9.71738 52.6955 15.3587 51.889 18.4826C50.7538 22.8766 48.7648 27.5498 46.3215 31.6181C46.985 31.6228 47.9462 31.5434 49.3126 31.2611C52.0085 30.7046 52.7969 32.1501 53.0109 32.7972C53.8681 35.3934 50.1419 37.3553 48.9796 37.895C47.4903 38.5864 45.0621 39.0075 43.0735 38.9164L42.9867 38.9108L42.4642 38.8648L42.4127 39.3005L42.3628 39.7263C42.2292 44.8821 41.4927 48.1473 39.9772 50.3048C38.3887 52.5667 36.1809 53.2005 34.2362 53.6173C33.5727 53.7591 32.9699 53.8209 32.4233 53.8209ZM28.4745 35.0561C29.6858 36.0254 29.7919 37.8494 29.8869 41.2582C29.8989 41.6836 29.9101 42.0862 29.9251 42.4621C29.9706 43.6008 30.0776 46.267 30.4953 47.3937C30.5542 47.5531 30.607 47.7146 30.6629 47.8861C31.1282 49.3109 31.3615 50.0255 33.3738 49.5954C35.0629 49.2332 35.9313 48.9083 36.611 47.9407C37.5989 46.5339 38.1515 43.7039 38.2529 39.5295L40.3081 39.5794L38.2671 39.3345L38.3272 38.8248C38.5227 37.1448 38.6637 35.9313 39.7864 35.1287C40.6875 34.485 41.714 34.5473 42.5317 34.6947C41.6332 34.0158 41.3849 33.2196 41.3187 32.893L41.1473 32.0487L41.6289 31.3341C44.4034 27.2177 46.6911 22.1586 47.9062 17.4535C49.1549 12.6191 48.7742 10.0517 48.3935 9.56613C43.3537 3.1264 34.6143 5.78531 33.7016 6.08695L33.5474 6.17031L32.7739 6.31425L32.3778 6.23218C31.2855 6.00531 30.0721 5.87984 28.7714 5.85879C26.7278 5.82441 25.0791 6.30738 23.7273 7.33304L22.7893 8.04418L21.7009 7.59601C19.3754 6.64511 12.5451 4.73343 8.94089 7.28621C6.94026 8.70332 6.02889 11.48 6.23171 15.5392C6.29874 16.8794 7.20925 21.9527 8.71143 26.8731C10.7873 33.6729 12.6736 35.9318 13.4612 36.1943C13.5987 36.2407 13.9553 35.9636 14.3103 35.5373C15.7902 33.7633 17.3225 32.0338 18.9053 30.351L20.0956 29.0984L21.5346 30.0545C22.1147 30.4399 22.7545 30.6586 23.4115 30.6999L26.8434 27.7728L26.3462 32.8466C26.3351 32.9605 26.3295 33.1156 26.3742 33.4035L26.5237 34.3651L25.8749 35.0904L25.8001 35.1746L27.6856 36.0448L28.4745 35.0561Z" fill="black"/>
<path d="M49.7282 33.2751C43.7448 34.5096 43.3336 32.4836 43.3336 32.4836C49.6513 23.1095 52.2921 11.2097 50.0131 8.29776C43.7955 0.353694 33.0322 4.11045 32.8526 4.20799L32.7946 4.2183C31.6125 3.97295 30.2895 3.82686 28.8024 3.80279C26.0949 3.75854 24.0415 4.51264 22.483 5.69428C22.483 5.69428 3.28282 -2.21541 4.17571 15.642C4.36563 19.4413 9.62071 44.3876 15.889 36.8526C18.1801 34.0975 20.3934 31.7677 20.3934 31.7677C21.493 32.4978 22.8091 32.8707 24.1888 32.7367L24.2963 32.6456C24.2627 32.9876 24.2782 33.3223 24.3392 33.7185C22.7245 35.5228 23.1988 35.8394 19.9706 36.5037C16.7041 37.1766 18.6231 38.375 19.8761 38.6883C21.3946 39.0681 24.9086 39.6061 27.2826 36.2829L27.1876 36.6619C27.8206 37.1689 28.2649 39.9584 28.1905 42.4871C28.1162 45.0158 28.0659 46.7522 28.5648 48.1083C29.0632 49.4644 29.5599 52.5152 33.8035 51.606C37.3493 50.8463 39.1867 48.877 39.4427 45.5925C39.6241 43.2571 40.0344 43.6026 40.0606 41.5147L40.3902 40.5265C40.77 37.361 40.4504 36.34 42.6353 36.8148L43.166 36.8612C44.7739 36.9343 46.8781 36.6026 48.1134 36.0285C50.7732 34.7949 52.3506 32.7341 49.7282 33.2751Z" fill="#FFFFFF"/>
<path d="M32.6378 52.5538C29.1006 52.5538 27.98 49.7526 27.5215 48.6071C26.8504 46.9283 26.7056 40.4134 26.8551 35.0707C26.8573 34.9806 26.8773 34.8918 26.914 34.8095C26.9507 34.7271 27.0033 34.6529 27.0688 34.591C27.1343 34.5291 27.2114 34.4807 27.2957 34.4488C27.3799 34.4168 27.4697 34.4018 27.5598 34.4046C27.6498 34.4071 27.7384 34.4273 27.8206 34.464C27.9028 34.5007 27.9769 34.5533 28.0388 34.6187C28.1006 34.6841 28.149 34.7611 28.1811 34.8452C28.2132 34.9293 28.2284 35.0189 28.2258 35.1089C28.0535 41.271 28.298 46.8553 28.7947 48.0979C29.5699 50.0354 30.7455 51.7301 34.0691 51.0181C37.2243 50.3413 38.406 49.1451 38.9323 46.0939C39.3362 43.7525 40.135 37.0915 40.2334 35.7771C40.24 35.6872 40.2642 35.5996 40.3047 35.5192C40.3453 35.4387 40.4013 35.3671 40.4695 35.3083C40.5378 35.2496 40.617 35.2048 40.7025 35.1767C40.7881 35.1486 40.8784 35.1377 40.9682 35.1446C41.1494 35.1583 41.3178 35.2434 41.4364 35.3811C41.555 35.5189 41.6141 35.6981 41.6007 35.8793C41.498 37.2479 40.7031 43.896 40.2837 46.3272C39.6624 49.931 38.0558 51.5655 34.3566 52.3587C33.7279 52.4932 33.1569 52.5534 32.6378 52.5538ZM13.4583 38.8721C13.1491 38.8711 12.8421 38.8203 12.5491 38.7217C10.2515 37.9551 8.06314 34.2134 6.04447 27.5993C4.5079 22.5646 3.53423 17.3095 3.44872 15.6015C3.19564 10.5381 4.49931 6.95577 7.32451 4.95472C12.9135 0.994719 22.3154 4.76566 22.7129 4.92808C22.8813 4.99685 23.0154 5.1297 23.0859 5.29739C23.1563 5.46508 23.1572 5.65388 23.0885 5.82226C23.0197 5.99063 22.8868 6.12479 22.7191 6.19522C22.5514 6.26565 22.3626 6.26658 22.1943 6.1978C22.1036 6.16085 13.0879 2.5489 8.11427 6.07534C5.69857 7.78808 4.58954 10.9703 4.81771 15.5332C4.88947 16.9722 5.79911 22.101 7.35544 27.1988C9.15755 33.1035 11.2085 36.8294 12.9826 37.421C13.2611 37.5139 14.1084 37.7962 15.3197 36.3395C16.7322 34.643 18.1977 32.9913 19.7141 31.3869C19.841 31.2604 20.0124 31.1885 20.1916 31.1867C20.3708 31.185 20.5435 31.2534 20.6729 31.3774C20.8023 31.5014 20.878 31.6711 20.8838 31.8502C20.8897 32.0293 20.8252 32.2035 20.7041 32.3357C20.6835 32.3572 18.6214 34.5129 16.3742 37.2165C15.3098 38.4966 14.2897 38.8721 13.4583 38.8721ZM43.2911 33.095C43.1668 33.0948 43.0449 33.0608 42.9384 32.9967C42.8319 32.9326 42.7448 32.8408 42.6864 32.7311C42.6281 32.6213 42.6007 32.4978 42.6071 32.3736C42.6136 32.2495 42.6536 32.1294 42.723 32.0263C49.1095 22.5496 51.3511 11.0988 49.4313 8.6453C47.0147 5.55757 43.6026 3.94495 39.289 3.85171C36.0951 3.78296 33.5565 4.59851 33.1414 4.74073L33.037 4.78327C32.6198 4.91433 32.2997 4.68573 32.1789 4.41847C32.1101 4.26534 32.0996 4.09232 32.1496 3.93203C32.1995 3.77174 32.3064 3.63527 32.4501 3.54835C32.4698 3.53675 32.5326 3.51011 32.6344 3.47273C33.3395 3.21448 35.9168 2.44105 39.1089 2.47757C43.8819 2.52827 47.8247 4.36862 50.5102 7.80054C51.7808 9.42433 51.7838 13.1652 50.5184 18.0645C49.2285 23.0596 46.8012 28.4277 43.8595 32.7929C43.7281 32.9893 43.5115 33.095 43.2911 33.095ZM43.6176 37.4821C42.5271 37.4821 41.5495 37.3282 40.9643 36.9776C40.3627 36.6171 40.248 36.1273 40.233 35.8673C40.0688 32.9841 41.6595 32.4822 42.4708 32.2532C42.3578 32.0822 42.1971 31.8811 42.0308 31.6735C41.5577 31.0823 40.9097 30.2728 40.4104 29.0619C40.3322 28.8728 40.0873 28.4333 39.8037 27.9241C38.2659 25.1664 35.066 19.4279 37.1216 16.4892C38.0729 15.1293 39.9674 14.5939 42.7587 14.8925C41.9376 12.3909 38.0274 4.56542 28.7492 4.41331C25.9588 4.36691 23.6702 5.22499 21.9506 6.96136C18.1006 10.8496 18.2399 17.8849 18.242 17.9553C18.2444 18.0453 18.229 18.1349 18.1967 18.219C18.1645 18.303 18.116 18.3799 18.054 18.4452C17.9921 18.5106 17.9178 18.563 17.8356 18.5997C17.7534 18.6363 17.6647 18.6564 17.5747 18.6587C17.4847 18.6611 17.3951 18.6457 17.3111 18.6135C17.227 18.5812 17.1501 18.5327 17.0848 18.4708C17.0195 18.4088 16.967 18.3346 16.9304 18.2523C16.8937 18.1701 16.8737 18.0814 16.8713 17.9914C16.8627 17.6791 16.7192 10.2962 20.9765 5.99628C22.969 3.98405 25.5918 2.99062 28.7719 3.04261C34.7076 3.14015 38.5284 6.15784 40.688 8.67194C43.0423 11.4121 44.1964 14.4345 44.2914 15.4434C44.3623 16.1936 43.8239 16.3436 43.7152 16.3659L43.4677 16.3715C40.7284 15.9328 38.971 16.2375 38.2444 17.2756C36.6808 19.5104 39.7079 24.9386 41.0004 27.2568C41.3304 27.848 41.5685 28.2756 41.6776 28.5394C42.1021 29.5689 42.656 30.2607 43.1007 30.8168C43.4922 31.3057 43.8312 31.7298 43.9524 32.2274C44.0086 32.3262 44.8074 33.5079 49.5473 32.5295C50.7354 32.2846 51.4478 32.4938 51.6657 33.1525C52.0941 34.448 49.6904 35.9593 48.3597 36.5771C47.1673 37.1314 45.2642 37.4821 43.6176 37.4821ZM41.5998 35.7543C41.7502 35.906 42.5026 36.1676 44.0606 36.1006C45.446 36.0413 46.9069 35.7401 47.7835 35.3332C48.9045 34.8124 49.653 34.2302 50.0406 33.8327L49.8258 33.8723C46.7952 34.4979 44.6515 34.4145 43.4543 33.6243C43.3738 33.5713 43.2964 33.5138 43.2223 33.452C43.0926 33.5032 42.9727 33.5367 42.8872 33.5607C42.2083 33.7511 41.5061 33.9483 41.5998 35.7543ZM22.0224 39.585C21.2696 39.585 20.4772 39.4823 19.6681 39.2799C18.8298 39.0702 17.4166 38.439 17.4381 37.4021C17.4626 36.239 19.1542 35.8901 19.791 35.759C22.0916 35.2851 22.2415 35.0952 22.9604 34.1821C23.1701 33.9161 23.4309 33.5848 23.7867 33.1878C24.3148 32.5965 24.8918 32.297 25.502 32.297C25.927 32.297 26.2754 32.441 26.5058 32.5368C27.2397 32.841 27.852 33.5766 28.1038 34.4562C28.3311 35.2498 28.2224 36.0138 27.7987 36.6072C26.4078 38.555 24.4102 39.585 22.0224 39.585ZM18.9192 37.461C19.1259 37.6209 19.5401 37.8344 20.0011 37.9496C20.702 38.1249 21.3817 38.2138 22.0228 38.2138C23.9762 38.2138 25.5445 37.4051 26.6836 35.8101C26.9213 35.4776 26.8499 35.0552 26.7863 34.833C26.6531 34.3677 26.3223 33.9444 25.9815 33.8031C25.7968 33.7266 25.6434 33.6682 25.5024 33.6682C25.4268 33.6682 25.1965 33.6682 24.8089 34.1017C24.5414 34.4025 24.2843 34.7123 24.0381 35.0307C23.1426 36.1676 22.7322 36.5535 20.0682 37.1022C19.4181 37.2354 19.0846 37.3712 18.9192 37.461ZM24.191 34.2985C24.0274 34.2982 23.8692 34.2395 23.7451 34.1328C23.6209 34.0261 23.5391 33.8785 23.5143 33.7167C23.4971 33.6029 23.4856 33.4883 23.4799 33.3734C21.7336 33.3407 20.0488 32.5914 18.7697 31.2567C17.1523 29.5694 16.4163 27.2314 16.7506 24.8428C17.1136 22.2488 16.9779 19.959 16.9048 18.7288C16.8846 18.3867 16.87 18.1397 16.8709 17.9687C16.8722 17.7517 16.8765 17.1763 18.7997 16.2014C19.4838 15.8546 20.8554 15.2496 22.3537 15.0945C24.836 14.838 26.4722 15.9435 26.9621 18.208C28.2842 24.3216 27.0669 27.0256 26.1779 29.0005C26.0125 29.3683 25.8561 29.7155 25.731 30.0519L25.6206 30.3484C25.151 31.6078 24.7449 32.6958 24.8695 33.5083C24.8832 33.5973 24.8792 33.6881 24.8578 33.7756C24.8363 33.863 24.7979 33.9454 24.7446 34.018C24.6914 34.0905 24.6243 34.1519 24.5473 34.1986C24.4703 34.2453 24.3849 34.2763 24.2959 34.2899L24.191 34.2985ZM18.2463 18.1586L18.2729 18.648C18.3486 19.9259 18.4895 22.3038 18.1079 25.0332C17.8325 27.0033 18.4341 28.9261 19.7592 30.308C20.8064 31.4003 22.1844 32.0031 23.6006 32.0031H23.6299C23.7884 31.335 24.0518 30.6294 24.3354 29.8693L24.445 29.5745C24.5863 29.1947 24.7518 28.8269 24.9271 28.4376C25.7826 26.5366 26.8478 24.1703 25.621 18.498C25.3783 17.3744 24.7892 16.7243 23.8211 16.5099C21.8325 16.0707 18.8689 17.5665 18.2463 18.1586ZM22.3842 17.8677C22.3498 18.11 22.8281 18.7571 23.452 18.8435C24.0746 18.9307 24.6074 18.4246 24.6413 18.1822C24.6753 17.9399 24.1975 17.6726 23.5736 17.5858C22.9497 17.499 22.4173 17.6253 22.3842 17.8677ZM23.5951 19.082L23.4202 19.07C23.0335 19.0162 22.6424 18.7726 22.3747 18.4177C22.2806 18.2931 22.1272 18.0516 22.1577 17.8359C22.2011 17.5196 22.587 17.3301 23.189 17.3301C23.3235 17.3301 23.4636 17.34 23.6045 17.3598C23.9336 17.4053 24.2392 17.5003 24.4647 17.6262C24.8558 17.8445 24.8845 18.0881 24.8669 18.214C24.8188 18.5634 24.2632 19.082 23.5951 19.082ZM22.6115 17.9081C22.6308 18.0576 23.0012 18.5509 23.4833 18.6175L23.5955 18.6252C24.0406 18.6252 24.3732 18.275 24.4123 18.1603C24.3711 18.0821 24.0849 17.8879 23.5422 17.8123C23.4253 17.7957 23.3075 17.7873 23.1894 17.7869C22.8405 17.7869 22.6553 17.8655 22.6115 17.9081ZM41.348 17.3731C41.382 17.6155 40.9042 18.2626 40.2807 18.3494C39.6576 18.4362 39.1244 17.9304 39.09 17.6881C39.0574 17.4457 39.5352 17.178 40.1582 17.0917C40.7813 17.0044 41.3136 17.1312 41.348 17.3731ZM40.1367 18.4731C39.5369 18.4731 39.0191 18.0065 38.9766 17.7035C38.9272 17.34 39.5257 17.0637 40.1419 16.9782C40.2777 16.9593 40.4122 16.9499 40.5415 16.9499C41.0734 16.9499 41.4258 17.1059 41.461 17.3576C41.4838 17.5205 41.3588 17.7719 41.1435 17.9987C41.0013 18.1478 40.7026 18.4061 40.2957 18.4624L40.1367 18.4731ZM40.5419 17.1785C40.4228 17.1785 40.3002 17.1872 40.1741 17.2047C39.5549 17.291 39.1854 17.5394 39.2035 17.6726C39.2241 17.8191 39.6194 18.245 40.1372 18.245L40.2648 18.2359C40.6029 18.1891 40.8569 17.9682 40.9781 17.841C41.1684 17.6412 41.244 17.453 41.235 17.389C41.223 17.3039 40.9944 17.1785 40.5419 17.1785ZM42.2456 31.2907C42.1214 31.2908 41.9995 31.2571 41.893 31.1932C41.7865 31.1293 41.6993 31.0376 41.6409 30.928C41.5824 30.8184 41.5549 30.695 41.5612 30.5709C41.5675 30.4469 41.6075 30.3269 41.6767 30.2238C43.1368 28.0431 42.8695 25.8195 42.6113 23.6689C42.5009 22.7528 42.3874 21.8053 42.4167 20.8961C42.4467 19.9607 42.5658 19.189 42.6805 18.4426C42.8167 17.5583 42.9456 16.723 42.8923 15.7313C42.8875 15.6414 42.9004 15.5514 42.9303 15.4665C42.9602 15.3816 43.0065 15.3034 43.0667 15.2364C43.1268 15.1695 43.1995 15.115 43.2807 15.0761C43.3619 15.0372 43.45 15.0147 43.5399 15.0098C43.6297 15.005 43.7197 15.0179 43.8046 15.0478C43.8895 15.0777 43.9677 15.1241 44.0347 15.1842C44.17 15.3056 44.2515 15.4758 44.2613 15.6574C44.3223 16.7909 44.1767 17.7362 44.0357 18.651C43.927 19.357 43.8144 20.087 43.7874 20.94C43.7611 21.7452 43.8638 22.6003 43.9726 23.5052C44.2476 25.792 44.5591 28.3839 42.8163 30.9865C42.7534 31.0801 42.6685 31.1568 42.569 31.2099C42.4694 31.2629 42.3584 31.2907 42.2456 31.2907Z" fill="#131313"/>
</svg>
