<svg width="50" height="50" viewBox="0 0 50 50" fill="none" xmlns="http://www.w3.org/2000/svg">
<g clip-path="url(#clip0_164_48)">
<path d="M19.6484 15.0391H16.7578V23.125H19.6484C21.6016 23.125 23.2031 21.5234 23.2031 19.5703V18.6328C23.2031 16.6406 21.6016 15.0391 19.6484 15.0391Z" fill="#FFFFFF"/>
<path d="M0 0V50H50V0H0ZM20 26.3672H16.7578V34.6875H13.0078V11.8359H20.2344C23.9062 11.7969 26.9141 14.7266 26.9531 18.3984V19.2969C26.9531 23.1641 23.8281 26.3281 20 26.3672ZM38.0078 20.8203C38.0078 20.8203 35.2734 20.8203 34.0625 21.3281V34.6875H30.1172V19.1016C30.1172 19.1016 34.1016 17.1094 38.0078 17.6172V20.8203Z" fill="#FFFFFF"/>
</g>
<defs>
<clipPath id="clip0_164_48">
<rect width="50" height="50" fill="white"/>
</clipPath>
</defs>
</svg>
