<svg width="60" height="60" viewBox="0 0 52 51" fill="none" xmlns="http://www.w3.org/2000/svg">
<path d="M26 13.5811H13.8378M13.8378 13.5811H9.72432C7.54324 13.5811 5.31081 14.079 3.96757 15.7636C2.53514 17.562 1 20.6238 1 25.5C1 30.3735 2.53514 33.438 3.96757 35.2364C5.31081 36.921 7.54324 37.4189 9.72432 37.4189H13.8378M13.8378 13.5811V9.54984C13.8378 7.41238 14.3459 5.22459 16.0649 3.90822C17.9 2.50443 21.0243 1 26 1C30.973 1 34.1 2.50443 35.9351 3.90822C37.6541 5.22459 38.1622 7.41238 38.1622 9.54984V13.5811M26 37.4189H38.1622M38.1622 37.4189H42.273C44.4541 37.4189 46.6892 36.921 48.0297 35.2364C49.4649 33.438 51 30.3762 51 25.5C51 20.6265 49.4649 17.562 48.0324 15.7636C46.6892 14.079 44.4541 13.5811 42.2757 13.5811H38.1622M38.1622 37.4189V41.4475C38.1622 43.585 37.6541 45.7754 35.9351 47.0891C34.1 48.4956 30.9757 50 26 50C21.027 50 17.9 48.4956 16.0649 47.0918C14.3459 45.7754 13.8378 43.585 13.8378 41.4502V37.4189M38.1622 13.5811V20.2027C38.1622 21.6076 37.5927 22.955 36.579 23.9485C35.5652 24.9419 34.1904 25.5 32.7568 25.5H19.2432C17.8096 25.5 16.4348 26.0581 15.421 27.0515C14.4073 28.045 13.8378 29.3924 13.8378 30.7973V37.4189" stroke="#FFFFFF" stroke-width="1.5" stroke-linecap="round" stroke-linejoin="round"/>
<path d="M34.1081 42.7162C34.1081 43.243 33.8946 43.7483 33.5144 44.1208C33.1343 44.4934 32.6187 44.7026 32.0811 44.7026C31.5435 44.7026 31.0279 44.4934 30.6478 44.1208C30.2676 43.7483 30.0541 43.243 30.0541 42.7162C30.0541 42.1893 30.2676 41.684 30.6478 41.3115C31.0279 40.939 31.5435 40.7297 32.0811 40.7297C32.6187 40.7297 33.1343 40.939 33.5144 41.3115C33.8946 41.684 34.1081 42.1893 34.1081 42.7162ZM17.8919 8.28373C17.8919 7.75688 18.1055 7.25161 18.4856 6.87907C18.8658 6.50653 19.3813 6.29724 19.9189 6.29724C20.4565 6.29724 20.9721 6.50653 21.3523 6.87907C21.7324 7.25161 21.946 7.75688 21.946 8.28373C21.946 8.81058 21.7324 9.31585 21.3523 9.68839C20.9721 10.0609 20.4565 10.2702 19.9189 10.2702C19.3813 10.2702 18.8658 10.0609 18.4856 9.68839C18.1055 9.31585 17.8919 8.81058 17.8919 8.28373Z" fill="#FFFFFF"/>
</svg>
