<svg width="55" height="55" viewBox="0 0 55 55" fill="none" xmlns="http://www.w3.org/2000/svg">
<g clip-path="url(#clip0_164_27)">
<path d="M27.5017 11.0009C20.1682 11.0009 15.5865 14.6661 13.7517 21.9996C16.5008 18.3339 19.7102 16.9593 23.3758 17.8759C25.4689 18.3975 26.9646 19.9152 28.621 21.5969C31.3169 24.3328 34.4373 27.5 41.2517 27.5C48.5848 27.5 53.1669 23.8343 55.0017 16.4991C52.2517 20.1667 49.0435 21.5419 45.3771 20.625C43.2846 20.1029 41.7905 18.5857 40.1319 16.9039C37.4378 14.1681 34.3183 11.0009 27.5017 11.0009ZM13.7517 27.5C6.41866 27.5 1.83647 31.1657 0.00170898 38.5009C2.75142 34.8333 5.95947 33.458 9.62585 34.375C11.7189 34.8971 13.2146 36.4143 14.871 38.0961C17.5669 40.8319 20.6873 43.9991 27.5017 43.9991C34.8348 43.9991 39.4169 40.3339 41.2517 33.0004C38.5017 36.6662 35.2935 38.0408 31.6271 37.1241C29.5346 36.6025 28.0405 35.0848 26.3819 33.403C23.6878 30.6672 20.5683 27.5 13.7517 27.5Z" fill="#FFFFFF"/>
</g>
<defs>
<clipPath id="clip0_164_27">
<rect width="55" height="55" fill="white"/>
</clipPath>
</defs>
</svg>
