<svg width="184" height="173" viewBox="0 0 184 173" fill="none" xmlns="http://www.w3.org/2000/svg">
<rect width="184" height="173" rx="8" fill="black"/>
<path d="M72.2791 53.7438C72.129 55.4953 73.5102 57 75.2681 57H123C124.657 57 126 58.3431 126 60V127.5C126 129.157 124.657 130.5 123 130.5H69.1819C66.8757 130.5 65.4319 128.006 66.5802 126.006L73.5 113.954H106C107.657 113.954 109 112.611 109 110.954V75.0504C109 73.374 107.626 72.0229 105.95 72.0508L76.4501 72.5418C74.8129 72.569 73.5 73.904 73.5 75.5414V113.954H59C57.3431 113.954 56 112.611 56 110.954V42.5C56 40.8431 57.3431 39.5 59 39.5H70.2319C71.9898 39.5 73.371 41.0047 73.2209 42.7562L72.2791 53.7438Z" fill="#222222"/>
<path d="M73.4618 55.688C73.4618 55.8848 73.6214 56.0444 73.8182 56.0444V56.0444H74.4545H75.2501H76.8102H80.1818H105.261C106.918 56.0444 108.261 57.3875 108.261 59.0444V73.0024H76.4618C74.805 73.0024 73.4618 74.3455 73.4618 76.0024V127.5C73.4618 129.157 72.1187 130.5 70.4618 130.5H59C57.3431 130.5 56 129.157 56 127.5V41.2831C56 40.1841 56.6009 39.1731 57.5663 38.6479L69.0281 32.4121C71.0272 31.3246 73.4618 32.7716 73.4618 35.0474V55.688ZM126 129.901C126 130.232 125.732 130.5 125.401 130.5H111.261C109.604 130.5 108.261 129.157 108.261 127.5V73.0024H123C124.657 73.0024 126 74.3455 126 76.0024V101.763V116.132V123.316V126.908V128.704V129.901V129.901Z" fill="#95FC2D"/>
</svg>
