<svg width="183" height="176" viewBox="0 0 183 176" fill="none" xmlns="http://www.w3.org/2000/svg">
<rect width="183" height="176" rx="10" fill="url(#paint0_linear_984_53)"/>
<mask id="path-2-outside-1_984_53" maskUnits="userSpaceOnUse" x="37" y="49" width="111" height="78" fill="black">
<rect fill="white" x="37" y="49" width="111" height="78"/>
<path d="M49.914 126C44.23 126 40.604 124.53 39.036 121.59C37.468 118.585 38.1867 114.632 41.192 109.732L46.19 101.892C47.8887 99.148 50.306 97.776 53.442 97.776H76.962C80.0327 97.776 80.7513 99.148 79.118 101.892L69.514 117.376C67.8153 119.989 68.534 121.296 71.67 121.296C74.6753 121.296 77.0273 119.989 78.726 117.376L93.426 93.66C95.0593 90.916 94.3407 89.544 91.27 89.544H58.636C55.5653 89.544 54.8467 88.172 56.48 85.428L72.944 58.87C74.4467 56.3873 76.5047 54.4273 79.118 52.99C81.7967 51.4873 84.5733 50.736 87.448 50.736H134.292C139.976 50.736 143.602 52.2387 145.17 55.244C146.803 58.184 146.052 62.104 142.916 67.004L138.114 74.844C136.415 77.588 133.998 78.96 130.862 78.96H107.342C104.206 78.96 103.487 77.588 105.186 74.844L114.79 59.36C116.489 56.7467 115.77 55.44 112.634 55.44C109.629 55.44 107.277 56.7467 105.578 59.36L92.25 80.822C90.6167 83.566 91.3353 84.938 94.406 84.938H127.138C130.209 84.938 130.927 86.31 129.294 89.054L111.36 117.866C109.792 120.349 107.701 122.341 105.088 123.844C102.475 125.281 99.7307 126 96.856 126H49.914Z"/>
</mask>
<path d="M49.914 126C44.23 126 40.604 124.53 39.036 121.59C37.468 118.585 38.1867 114.632 41.192 109.732L46.19 101.892C47.8887 99.148 50.306 97.776 53.442 97.776H76.962C80.0327 97.776 80.7513 99.148 79.118 101.892L69.514 117.376C67.8153 119.989 68.534 121.296 71.67 121.296C74.6753 121.296 77.0273 119.989 78.726 117.376L93.426 93.66C95.0593 90.916 94.3407 89.544 91.27 89.544H58.636C55.5653 89.544 54.8467 88.172 56.48 85.428L72.944 58.87C74.4467 56.3873 76.5047 54.4273 79.118 52.99C81.7967 51.4873 84.5733 50.736 87.448 50.736H134.292C139.976 50.736 143.602 52.2387 145.17 55.244C146.803 58.184 146.052 62.104 142.916 67.004L138.114 74.844C136.415 77.588 133.998 78.96 130.862 78.96H107.342C104.206 78.96 103.487 77.588 105.186 74.844L114.79 59.36C116.489 56.7467 115.77 55.44 112.634 55.44C109.629 55.44 107.277 56.7467 105.578 59.36L92.25 80.822C90.6167 83.566 91.3353 84.938 94.406 84.938H127.138C130.209 84.938 130.927 86.31 129.294 89.054L111.36 117.866C109.792 120.349 107.701 122.341 105.088 123.844C102.475 125.281 99.7307 126 96.856 126H49.914Z" fill="white"/>
<path d="M39.036 121.59L38.1494 122.053L38.1536 122.061L39.036 121.59ZM41.192 109.732L40.3488 109.194L40.3441 109.202L40.3396 109.209L41.192 109.732ZM46.19 101.892L47.0333 102.43L47.0403 102.418L46.19 101.892ZM79.118 101.892L79.9678 102.419L79.9726 102.411L79.9773 102.403L79.118 101.892ZM69.514 117.376L70.3524 117.921L70.3582 117.912L70.3638 117.903L69.514 117.376ZM78.726 117.376L79.5644 117.921L79.5703 117.912L79.576 117.903L78.726 117.376ZM93.426 93.66L94.276 94.1868L94.2807 94.1792L94.2853 94.1715L93.426 93.66ZM56.48 85.428L55.6301 84.9011L55.6253 84.9088L55.6207 84.9165L56.48 85.428ZM72.944 58.87L73.794 59.3969L73.7995 59.3878L72.944 58.87ZM79.118 52.99L79.5999 53.8662L79.6073 53.8621L79.118 52.99ZM145.17 55.244L144.283 55.7066L144.289 55.7182L144.296 55.7296L145.17 55.244ZM142.916 67.004L142.074 66.4649L142.068 66.4733L142.063 66.4817L142.916 67.004ZM138.114 74.844L138.964 75.3704L138.967 75.3663L138.114 74.844ZM105.186 74.844L104.336 74.3169L104.336 74.3176L105.186 74.844ZM114.79 59.36L113.952 58.815L113.946 58.8239L113.94 58.8329L114.79 59.36ZM105.578 59.36L104.74 58.815L104.734 58.8237L104.728 58.8324L105.578 59.36ZM92.25 80.822L91.4005 80.2944L91.3955 80.3024L91.3907 80.3105L92.25 80.822ZM129.294 89.054L130.143 89.5824L130.148 89.574L130.153 89.5655L129.294 89.054ZM111.36 117.866L112.206 118.4L112.209 118.394L111.36 117.866ZM105.088 123.844L105.57 124.72L105.578 124.716L105.586 124.711L105.088 123.844ZM49.914 125C44.3277 125 41.2141 123.549 39.9184 121.119L38.1536 122.061C39.9939 125.511 44.1323 127 49.914 127V125ZM39.9226 121.127C38.6066 118.605 39.0921 115.068 42.0444 110.255L40.3396 109.209C37.2813 114.196 36.3294 118.564 38.1494 122.053L39.9226 121.127ZM42.0352 110.27L47.0332 102.43L45.3468 101.354L40.3488 109.194L42.0352 110.27ZM47.0403 102.418C48.5631 99.9584 50.6644 98.776 53.442 98.776V96.776C49.9476 96.776 47.2142 98.3376 45.3397 101.366L47.0403 102.418ZM53.442 98.776H76.962V96.776H53.442V98.776ZM76.962 98.776C77.668 98.776 78.1606 98.8566 78.4836 98.9735C78.795 99.0863 78.8859 99.2074 78.9182 99.269C78.9543 99.3379 79.0074 99.507 78.9258 99.8743C78.8432 100.246 78.6377 100.744 78.2587 101.381L79.9773 102.403C80.415 101.668 80.7322 100.965 80.8782 100.308C81.0252 99.6465 81.0131 98.9581 80.6898 98.341C80.3628 97.7166 79.8003 97.3232 79.1644 97.093C78.5401 96.8669 77.7914 96.776 76.962 96.776V98.776ZM78.2682 101.365L68.6642 116.849L70.3638 117.903L79.9678 102.419L78.2682 101.365ZM68.6756 116.831C68.2196 117.532 67.8829 118.209 67.7231 118.848C67.5615 119.495 67.5639 120.182 67.9028 120.798C68.2409 121.413 68.819 121.784 69.4502 121.998C70.0756 122.21 70.8293 122.296 71.67 122.296V120.296C70.9427 120.296 70.4306 120.219 70.0923 120.104C69.7599 119.991 69.6764 119.873 69.6552 119.834C69.6348 119.797 69.58 119.667 69.6634 119.334C69.7486 118.993 69.959 118.526 70.3524 117.921L68.6756 116.831ZM71.67 122.296C75.0287 122.296 77.6896 120.805 79.5644 117.921L77.8876 116.831C76.3651 119.173 74.322 120.296 71.67 120.296V122.296ZM79.576 117.903L94.276 94.1868L92.576 93.1332L77.876 116.849L79.576 117.903ZM94.2853 94.1715C94.723 93.4361 95.0402 92.7333 95.1862 92.0762C95.3332 91.4145 95.3211 90.7261 94.9978 90.109C94.6708 89.4846 94.1083 89.0912 93.4724 88.861C92.8481 88.6349 92.0994 88.544 91.27 88.544V90.544C91.976 90.544 92.4686 90.6246 92.7916 90.7415C93.103 90.8543 93.1939 90.9754 93.2262 91.037C93.2623 91.1059 93.3154 91.275 93.2338 91.6423C93.1512 92.0142 92.9457 92.5119 92.5667 93.1485L94.2853 94.1715ZM91.27 88.544H58.636V90.544H91.27V88.544ZM58.636 88.544C57.93 88.544 57.4374 88.4634 57.1144 88.3465C56.803 88.2337 56.7121 88.1126 56.6798 88.051C56.6437 87.9821 56.5906 87.813 56.6722 87.4457C56.7548 87.0738 56.9603 86.5761 57.3393 85.9395L55.6207 84.9165C55.183 85.6519 54.8658 86.3547 54.7198 87.0118C54.5728 87.6735 54.5849 88.3619 54.9082 88.979C55.2352 89.6034 55.7977 89.9968 56.4336 90.227C57.0579 90.4531 57.8066 90.544 58.636 90.544V88.544ZM57.3299 85.9549L73.7939 59.3969L72.0941 58.3431L55.6301 84.9011L57.3299 85.9549ZM73.7995 59.3878C75.2087 57.0596 77.136 55.2214 79.5999 53.8662L78.6361 52.1138C75.8734 53.6333 73.6847 55.715 72.0885 58.3522L73.7995 59.3878ZM79.6073 53.8621C82.147 52.4374 84.7564 51.736 87.448 51.736V49.736C84.3903 49.736 81.4463 50.5373 78.6288 52.1179L79.6073 53.8621ZM87.448 51.736H134.292V49.736H87.448V51.736ZM134.292 51.736C139.869 51.736 142.983 53.2146 144.283 55.7066L146.057 54.7814C144.221 51.2627 140.083 49.736 134.292 49.736V51.736ZM144.296 55.7296C145.648 58.1627 145.161 61.6412 142.074 66.4649L143.758 67.543C146.943 62.5668 147.959 58.2053 146.044 54.7584L144.296 55.7296ZM142.063 66.4817L137.261 74.3217L138.967 75.3663L143.769 67.5263L142.063 66.4817ZM137.264 74.3176C135.741 76.7776 133.64 77.96 130.862 77.96V79.96C134.356 79.96 137.09 78.3984 138.964 75.3704L137.264 74.3176ZM130.862 77.96H107.342V79.96H130.862V77.96ZM107.342 77.96C106.618 77.96 106.111 77.8791 105.779 77.7606C105.456 77.6458 105.366 77.5232 105.337 77.467C105.304 77.405 105.251 77.2423 105.338 76.8764C105.426 76.5056 105.642 76.0079 106.036 75.3704L104.336 74.3176C103.881 75.0521 103.549 75.7549 103.392 76.4131C103.235 77.0762 103.238 77.771 103.565 78.395C103.895 79.0248 104.467 79.4167 105.108 79.6449C105.739 79.8694 106.498 79.96 107.342 79.96V77.96ZM106.036 75.3711L115.64 59.8871L113.94 58.8329L104.336 74.3169L106.036 75.3711ZM115.628 59.905C116.084 59.2036 116.421 58.5267 116.581 57.8875C116.743 57.241 116.74 56.5542 116.401 55.9381C116.063 55.3233 115.485 54.9519 114.854 54.7379C114.228 54.5259 113.475 54.44 112.634 54.44V56.44C113.361 56.44 113.873 56.5174 114.212 56.6321C114.544 56.7447 114.628 56.8634 114.649 56.9019C114.669 56.9391 114.724 57.069 114.641 57.4025C114.555 57.7433 114.345 58.2098 113.952 58.815L115.628 59.905ZM112.634 54.44C109.275 54.44 106.614 55.9306 104.74 58.815L106.416 59.905C107.939 57.5628 109.982 56.44 112.634 56.44V54.44ZM104.728 58.8324L91.4005 80.2944L93.0995 81.3496L106.428 59.8876L104.728 58.8324ZM91.3907 80.3105C90.953 81.0459 90.6358 81.7487 90.4898 82.4058C90.3428 83.0675 90.3549 83.7559 90.6782 84.373C91.0052 84.9974 91.5677 85.3908 92.2036 85.621C92.8279 85.8471 93.5766 85.938 94.406 85.938V83.938C93.7 83.938 93.2074 83.8574 92.8844 83.7405C92.573 83.6277 92.4821 83.5066 92.4498 83.445C92.4137 83.376 92.3606 83.207 92.4422 82.8397C92.5248 82.4678 92.7303 81.9701 93.1093 81.3335L91.3907 80.3105ZM94.406 85.938H127.138V83.938H94.406V85.938ZM127.138 85.938C127.844 85.938 128.337 86.0186 128.66 86.1355C128.971 86.2483 129.062 86.3694 129.094 86.431C129.13 86.4999 129.183 86.669 129.102 87.0363C129.019 87.4082 128.814 87.9059 128.435 88.5425L130.153 89.5655C130.591 88.8301 130.908 88.1273 131.054 87.4702C131.201 86.8085 131.189 86.1201 130.866 85.503C130.539 84.8786 129.976 84.4852 129.34 84.255C128.716 84.0289 127.967 83.938 127.138 83.938V85.938ZM128.445 88.5256L110.511 117.338L112.209 118.394L130.143 89.5824L128.445 88.5256ZM110.515 117.332C109.036 119.673 107.066 121.553 104.59 122.977L105.586 124.711C108.337 123.129 110.548 121.024 112.205 118.4L110.515 117.332ZM104.606 122.968C102.135 124.327 99.5557 125 96.856 125V127C99.9056 127 102.815 126.236 105.57 124.72L104.606 122.968ZM96.856 125H49.914V127H96.856V125Z" fill="white" mask="url(#path-2-outside-1_984_53)"/>
<defs>
<linearGradient id="paint0_linear_984_53" x1="91.5" y1="0" x2="91.5" y2="176" gradientUnits="userSpaceOnUse">
<stop stop-color="#B133FF"/>
<stop offset="1" stop-color="#7A50EE"/>
</linearGradient>
</defs>
</svg>
