<svg width="183" height="176" viewBox="0 0 183 176" fill="none" xmlns="http://www.w3.org/2000/svg">
<rect width="183" height="176" rx="10" fill="#0E0E0E"/>
<path d="M84.7372 66.9818C84.7372 65.8772 85.6326 64.9818 86.7372 64.9818H95.6496C96.7542 64.9818 97.6496 65.8772 97.6496 66.9818V123.088H84.7372L84.1381 92.7671C84.1165 91.6781 83.2276 90.8066 82.1385 90.8066H60.9124C59.8078 90.8066 58.9124 91.702 58.9124 92.8066V121.088C58.9124 122.192 59.8078 123.088 60.9124 123.088H84.7372V134C84.7372 135.105 83.8418 136 82.7372 136H48C46.8954 136 46 135.105 46 134V79.8942C46 78.7896 46.8954 77.8942 48 77.8942H82.7372C83.8418 77.8942 84.7372 76.9988 84.7372 75.8942V66.9818Z" fill="#E49245"/>
<path d="M97.6496 47C97.6496 45.8954 98.545 45 99.6496 45H133.099C134.204 45 135.099 45.8954 135.099 47V101.106C135.099 102.21 134.204 103.106 133.099 103.106H99.6496C98.545 103.106 97.6496 104.001 97.6496 105.106V123.088H84.7372L84.1191 59.932C84.1082 58.8198 85.0068 57.9124 86.119 57.9124H97.6496V88.1934C97.6496 89.298 98.545 90.1934 99.6496 90.1934H120.187C121.291 90.1934 122.187 89.298 122.187 88.1934V59.9124C122.187 58.8078 121.291 57.9124 120.187 57.9124H97.6496V47Z" fill="#E49245"/>
</svg>
