<svg width="1200" height="630" viewBox="0 0 1200 630" fill="none" xmlns="http://www.w3.org/2000/svg">
<rect width="1200" height="630" fill="black"/>
<path d="M478.795 434.299C472.949 444.12 464.297 449.031 452.839 449.031H370.761C359.771 449.031 357.199 444.12 363.045 434.299L455.645 285.578C458.217 282.304 457.398 280.667 453.189 280.667H446.525C440.211 280.667 438.808 277.861 442.316 272.249C445.823 266.637 450.851 263.831 457.398 263.831H463.712C467.22 263.831 470.143 262.194 472.481 258.92L491.773 228.054C497.619 218.466 506.037 212.036 517.027 208.762L623.306 180.702C624.709 180.234 626.346 180 628.217 180C634.297 180 634.998 183.624 630.322 190.873L588.231 258.92C585.892 262.194 586.711 263.831 590.686 263.831L827.858 258.92C834.172 258.92 842.808 266.637 839.301 272.249C835.793 277.861 831.585 277 825.038 277L580.163 280.667C576.89 280.667 573.967 282.304 571.394 285.578L478.795 434.299Z" fill="url(#paint0_linear_1354_7)"/>
<path d="M488.246 449.031C485.614 449.031 485.023 447.903 486.473 445.646L508.794 409.869C510.137 407.613 512.124 406.485 514.757 406.485H567.617C570.141 406.485 570.732 407.613 569.389 409.869L558.995 426.388C557.598 428.59 555.637 429.692 553.112 429.692H534.257C531.678 429.692 531.061 428.563 532.404 426.307L540.461 413.495C541.804 411.4 541.214 410.353 538.689 410.353C536.271 410.353 534.391 411.4 533.048 413.495L513.064 445.646C511.614 447.903 509.626 449.031 507.102 449.031H488.246Z" fill="url(#paint1_linear_1354_7)"/>
<path d="M583.233 442.02C581.89 444.115 582.454 445.163 584.925 445.163C587.396 445.163 589.303 444.115 590.646 442.02L593.789 436.944C595.132 434.688 597.119 433.559 599.751 433.559H618.607C621.132 433.559 621.723 434.688 620.38 436.944L616.995 442.343C615.706 444.384 613.987 446.022 611.838 447.258C609.69 448.44 607.433 449.031 605.07 449.031H559.945C557.582 449.031 556.077 448.44 555.433 447.258C554.788 446.022 555.111 444.384 556.4 442.343L574.53 413.173C575.766 411.132 577.458 409.52 579.607 408.338C581.809 407.103 584.092 406.485 586.456 406.485H623.845C628.518 406.485 631.5 407.72 632.789 410.191C634.132 412.609 633.514 415.832 630.936 419.861L626.987 426.307C625.644 428.563 623.657 429.692 621.024 429.692H594.756C592.123 429.692 590.136 430.82 588.793 433.076L583.233 442.02ZM608.293 413.495C609.636 411.4 609.072 410.353 606.601 410.353C604.13 410.353 602.223 411.4 600.88 413.495L595.239 422.601C593.896 424.749 594.487 425.824 597.012 425.824C599.483 425.824 601.39 424.749 602.733 422.601L608.293 413.495Z" fill="url(#paint2_linear_1354_7)"/>
<path d="M623.988 449.031C621.409 449.031 620.791 447.903 622.134 445.646L644.535 409.869C645.825 407.613 647.812 406.485 650.498 406.485H724.067C728.741 406.485 731.722 407.72 733.011 410.191C734.354 412.609 733.737 415.832 731.158 419.861L715.042 445.646C713.699 447.903 711.738 449.031 709.16 449.031H690.304C687.726 449.031 687.108 447.903 688.451 445.646L708.515 413.495C709.858 411.4 709.267 410.353 706.743 410.353C704.379 410.353 702.526 411.4 701.183 413.495L681.118 445.646C679.775 447.903 677.815 449.031 675.236 449.031H657.992C655.413 449.031 654.796 447.903 656.139 445.646L676.203 413.495C677.546 411.4 676.955 410.353 674.43 410.353C672.013 410.353 670.133 411.4 668.79 413.495L648.725 445.646C647.382 447.903 645.422 449.031 642.843 449.031H623.988Z" fill="url(#paint3_linear_1354_7)"/>
<path d="M744.789 409.869C746.132 407.613 748.12 406.485 750.752 406.485H769.608C772.132 406.485 772.723 407.613 771.38 409.869L749.06 445.646C747.609 447.903 745.622 449.031 743.097 449.031H724.241C721.609 449.031 721.018 447.903 722.469 445.646L744.789 409.869ZM756.795 390.53C758.138 388.274 760.126 387.146 762.758 387.146H781.614C784.139 387.146 784.73 388.274 783.387 390.53L777.988 399.233C776.645 401.489 774.657 402.617 772.025 402.617H753.169C750.645 402.617 750.054 401.489 751.397 399.233L756.795 390.53Z" fill="url(#paint4_linear_1354_7)"/>
<path d="M776.529 413.173C777.765 411.132 779.457 409.52 781.606 408.338C783.808 407.103 786.091 406.485 788.455 406.485H837.528C840.053 406.485 840.643 407.613 839.301 409.869L833.821 418.652C832.424 420.855 830.437 421.956 827.858 421.956H809.003C806.478 421.956 805.887 420.828 807.23 418.572L810.373 413.576C811.716 411.427 811.125 410.353 808.6 410.353C806.129 410.353 804.222 411.427 802.879 413.576L797.399 422.439C796.056 424.696 796.647 425.824 799.172 425.824H821.492C823.856 425.824 825.333 426.442 825.924 427.677C826.569 428.859 826.274 430.471 825.038 432.512L818.995 442.343C817.705 444.384 815.986 446.022 813.837 447.258C811.689 448.44 809.432 449.031 807.069 449.031H758.077C755.552 449.031 754.961 447.903 756.304 445.646L761.783 436.863C763.18 434.661 765.168 433.559 767.746 433.559H786.602C789.126 433.559 789.717 434.688 788.374 436.944L785.232 442.02C783.889 444.115 784.453 445.163 786.924 445.163C789.395 445.163 791.302 444.088 792.645 441.94L798.124 433.076C799.467 430.82 798.877 429.692 796.352 429.692H774.031C771.668 429.692 770.163 429.101 769.519 427.919C768.874 426.683 769.197 425.045 770.486 423.004L776.529 413.173Z" fill="url(#paint5_linear_1354_7)"/>
<defs>
<linearGradient id="paint0_linear_1354_7" x1="600.055" y1="180" x2="600" y2="657.5" gradientUnits="userSpaceOnUse">
<stop stop-color="#CD3335"/>
<stop offset="1" stop-color="#67191B"/>
</linearGradient>
<linearGradient id="paint1_linear_1354_7" x1="600.055" y1="180" x2="600" y2="657.5" gradientUnits="userSpaceOnUse">
<stop stop-color="#CD3335"/>
<stop offset="1" stop-color="#67191B"/>
</linearGradient>
<linearGradient id="paint2_linear_1354_7" x1="600.055" y1="180" x2="600" y2="657.5" gradientUnits="userSpaceOnUse">
<stop stop-color="#CD3335"/>
<stop offset="1" stop-color="#67191B"/>
</linearGradient>
<linearGradient id="paint3_linear_1354_7" x1="600.055" y1="180" x2="600" y2="657.5" gradientUnits="userSpaceOnUse">
<stop stop-color="#CD3335"/>
<stop offset="1" stop-color="#67191B"/>
</linearGradient>
<linearGradient id="paint4_linear_1354_7" x1="600.055" y1="180" x2="600" y2="657.5" gradientUnits="userSpaceOnUse">
<stop stop-color="#CD3335"/>
<stop offset="1" stop-color="#67191B"/>
</linearGradient>
<linearGradient id="paint5_linear_1354_7" x1="600.055" y1="180" x2="600" y2="657.5" gradientUnits="userSpaceOnUse">
<stop stop-color="#CD3335"/>
<stop offset="1" stop-color="#67191B"/>
</linearGradient>
</defs>
</svg>
